<svg xmlns="http://www.w3.org/2000/svg" aria-hidden="true" style="position:absolute;width:0;height:0;overflow:hidden">
    <defs>
        <symbol id="logo" viewBox="0 0 244 32">
            <path fill="#a259ff"
                d="M6 12.45a1 1 0 0 1 1 1V26h18V13.45a1 1 0 0 1 2 0V26a2 2 0 0 1-2 2H7a2 2 0 0 1-2-2V13.45a1 1 0 0 1 1-1zM3 5a1 1 0 0 1 1-1h24a1 1 0 0 1 0 2H4a1 1 0 0 1-1-1z"
                style="fill:var(--color1, #a259ff)" />
            <path fill="#a259ff"
                d="M4 7a1 1 0 0 1 1 1v2a3.004 3.004 0 0 0 3 3 3.004 3.004 0 0 0 3-3V8a1 1 0 0 1 2 0v2a5 5 0 0 1-10 0V8a1 1 0 0 1 1-1z"
                style="fill:var(--color1, #a259ff)" />
            <path fill="#a259ff"
                d="M12 7a1 1 0 0 1 1 1v2a3.004 3.004 0 0 0 3 3 3.004 3.004 0 0 0 3-3V8a1 1 0 0 1 2 0v2a4.997 4.997 0 0 1-5 4.999A5 5 0 0 1 11.001 10V8a1 1 0 0 1 1-1z"
                style="fill:var(--color1, #a259ff)" />
            <path fill="#a259ff"
                d="M20 7a1 1 0 0 1 1 1v2a3.004 3.004 0 0 0 3 3 3.004 3.004 0 0 0 3-3V8a1 1 0 0 1 2 0v2a4.997 4.997 0 0 1-5 4.999A5 5 0 0 1 19 10V8a1 1 0 0 1 1-1z"
                style="fill:var(--color1, #a259ff)" />
            <path fill="#fff"
                d="M51.48 22.548h.396V8.6h2.904V24h-5.676L47.3 10.052h-.396V24H44V8.6h5.676l1.804 13.948zM58.065 8.6h9.856v2.772h-6.952v3.52h6.82v2.772h-6.82V24h-2.904V8.6zM70.787 8.6h11.088v2.772h-4.092V24h-2.904V11.372h-4.092V8.6zM97.025 8.6h5.104l.88 11.572v2.244h.528v-2.244l.88-11.572h5.104V24h-2.64V13.704l.264-3.52h-.528L105.473 24h-4.356l-1.188-13.816h-.528l.264 3.52V24h-2.64V8.6zM118.79 22.416c-.294.689-.704 1.181-1.232 1.474-.528.279-1.144.418-1.848.418-.66 0-1.284-.125-1.87-.374-.572-.249-1.078-.616-1.518-1.1s-.792-1.071-1.056-1.76c-.25-.689-.374-1.474-.374-2.354v-.352c0-.865.124-1.643.374-2.332.249-.689.586-1.276 1.012-1.76a4.259 4.259 0 0 1 1.474-1.1 4.303 4.303 0 0 1 1.826-.396c.777 0 1.4.132 1.87.396.484.264.865.675 1.144 1.232h.396v-1.32h2.772V20.7c0 .44.198.66.594.66h.418V24h-1.892c-.499 0-.91-.147-1.232-.44-.308-.293-.462-.675-.462-1.144h-.396zm-2.464-.748c.806 0 1.452-.264 1.936-.792.484-.543.726-1.276.726-2.2v-.264c0-.924-.242-1.65-.726-2.178-.484-.543-1.13-.814-1.936-.814s-1.452.271-1.936.814c-.484.528-.726 1.254-.726 2.178v.264c0 .924.242 1.657.726 2.2.484.528 1.129.792 1.936.792zM124.67 13.088h4.62v1.584h.396c.206-.601.55-1.063 1.034-1.386.499-.337 1.093-.506 1.782-.506 1.086 0 1.958.345 2.618 1.034.66.675.99 1.709.99 3.102v.484l-2.86.264v-.308c0-.601-.154-1.078-.462-1.43-.308-.367-.77-.55-1.386-.55s-1.1.213-1.452.638c-.352.425-.528 1.034-.528 1.826v3.52h2.508V24h-7.524v-2.64h2.244v-5.632h-1.98v-2.64zM142.321 17.092h.528l2.904-4.004h3.036v.132l-3.52 4.994v.396l3.872 5.258V24h-3.168l-3.124-4.268h-.528V24h-2.772V8.6h2.772v8.492zM154.582 19.446c.014.323.088.623.22.902a2.6 2.6 0 0 0 .572.704c.249.191.528.345.836.462.322.103.66.154 1.012.154.689 0 1.217-.117 1.584-.352.366-.249.63-.543.792-.88l2.376 1.32a5.044 5.044 0 0 1-.55.88 3.917 3.917 0 0 1-.924.814c-.367.249-.822.455-1.364.616-.528.161-1.152.242-1.87.242-.822 0-1.57-.132-2.244-.396a5.06 5.06 0 0 1-1.76-1.144 5.363 5.363 0 0 1-1.144-1.826c-.264-.719-.396-1.533-.396-2.442v-.132c0-.836.139-1.599.418-2.288a5.317 5.317 0 0 1 1.188-1.76 5.282 5.282 0 0 1 1.738-1.122 5.582 5.582 0 0 1 2.156-.418c.938 0 1.745.169 2.42.506a5.031 5.031 0 0 1 1.672 1.254c.44.499.762 1.056.968 1.672.205.601.308 1.188.308 1.76v1.474h-8.008zm2.618-4.158c-.704 0-1.276.183-1.716.55-.44.352-.726.763-.858 1.232h5.148c-.088-.513-.367-.939-.836-1.276-.455-.337-1.034-.506-1.738-.506zM165.302 13.088h3.234V8.6h2.772v4.488h3.938v2.64h-3.938V20.7c0 .44.198.66.594.66h2.948V24h-4.62c-.498 0-.909-.161-1.232-.484-.308-.323-.462-.733-.462-1.232v-6.556h-3.234v-2.64zM181.281 28.4h-2.772V13.088h2.772v1.584h.396a3.164 3.164 0 0 1 1.276-1.386c.557-.337 1.269-.506 2.134-.506.645 0 1.254.125 1.826.374a4.159 4.159 0 0 1 1.518 1.1c.44.469.785 1.049 1.034 1.738.264.689.396 1.474.396 2.354v.396c0 .895-.125 1.687-.374 2.376s-.587 1.276-1.012 1.76a4.281 4.281 0 0 1-1.518 1.078 4.872 4.872 0 0 1-1.87.352c-.499 0-.931-.051-1.298-.154s-.689-.242-.968-.418a3.375 3.375 0 0 1-.682-.594 5.538 5.538 0 0 1-.462-.726h-.396V28.4zm2.904-6.732c.865 0 1.562-.264 2.09-.792.543-.543.814-1.276.814-2.2v-.264c0-.924-.271-1.65-.814-2.178-.528-.543-1.225-.814-2.09-.814s-1.569.279-2.112.836c-.528.543-.792 1.261-.792 2.156v.264c0 .895.264 1.621.792 2.178.543.543 1.247.814 2.112.814zM192.486 21.36h3.828V11.24h-3.696V8.6h6.468v12.76h3.564V24h-10.164v-2.64zM213.084 22.416c-.293.689-.704 1.181-1.232 1.474-.528.279-1.144.418-1.848.418-.66 0-1.283-.125-1.87-.374-.572-.249-1.078-.616-1.518-1.1s-.792-1.071-1.056-1.76c-.249-.689-.374-1.474-.374-2.354v-.352c0-.865.125-1.643.374-2.332.25-.689.587-1.276 1.012-1.76s.917-.851 1.474-1.1a4.306 4.306 0 0 1 1.826-.396c.778 0 1.401.132 1.87.396.484.264.866.675 1.144 1.232h.396v-1.32h2.772V20.7c0 .44.198.66.594.66h.418V24h-1.892c-.498 0-.909-.147-1.232-.44-.308-.293-.462-.675-.462-1.144h-.396zm-2.464-.748c.807 0 1.452-.264 1.936-.792.484-.543.726-1.276.726-2.2v-.264c0-.924-.242-1.65-.726-2.178-.484-.543-1.129-.814-1.936-.814-.806 0-1.452.271-1.936.814-.484.528-.726 1.254-.726 2.178v.264c0 .924.242 1.657.726 2.2.484.528 1.13.792 1.936.792zM230.141 19.996c-.249 1.291-.843 2.332-1.782 3.124-.924.792-2.163 1.188-3.718 1.188a6.746 6.746 0 0 1-2.266-.374c-.689-.249-1.291-.609-1.804-1.078s-.917-1.049-1.21-1.738c-.293-.689-.44-1.474-.44-2.354V18.5c0-.88.147-1.672.44-2.376s.697-1.305 1.21-1.804a5.49 5.49 0 0 1 1.826-1.144 6.338 6.338 0 0 1 2.244-.396c1.525 0 2.757.396 3.696 1.188.953.792 1.555 1.833 1.804 3.124l-2.728.704c-.088-.645-.367-1.203-.836-1.672s-1.129-.704-1.98-.704c-.396 0-.77.073-1.122.22s-.66.359-.924.638a2.951 2.951 0 0 0-.638.99c-.147.381-.22.814-.22 1.298v.132c0 .484.073.917.22 1.298.161.367.374.675.638.924s.572.44.924.572c.352.117.726.176 1.122.176.851 0 1.496-.213 1.936-.638.455-.425.748-.997.88-1.716l2.728.682zM235.406 19.446c.015.323.088.623.22.902.147.264.337.499.572.704.249.191.528.345.836.462.323.103.66.154 1.012.154.689 0 1.217-.117 1.584-.352.367-.249.631-.543.792-.88l2.376 1.32a4.985 4.985 0 0 1-.55.88 3.917 3.917 0 0 1-.924.814c-.367.249-.821.455-1.364.616-.528.161-1.151.242-1.87.242-.821 0-1.569-.132-2.244-.396s-1.261-.645-1.76-1.144a5.378 5.378 0 0 1-1.144-1.826c-.264-.719-.396-1.533-.396-2.442v-.132c0-.836.139-1.599.418-2.288.293-.689.689-1.276 1.188-1.76s1.078-.858 1.738-1.122a5.585 5.585 0 0 1 2.156-.418c.939 0 1.745.169 2.42.506a5.02 5.02 0 0 1 1.672 1.254c.44.499.763 1.056.968 1.672.205.601.308 1.188.308 1.76v1.474h-8.008zm2.618-4.158c-.704 0-1.276.183-1.716.55-.44.352-.726.763-.858 1.232h5.148c-.088-.513-.367-.939-.836-1.276-.455-.337-1.034-.506-1.738-.506z"
                style="fill:var(--color2, #fff)" />
        </symbol>
        <symbol id="rocket" viewBox="0 0 32 32">
            <path
                d="M9.873 19.919a1 1 0 0 1-.629 1.267c-1.695.57-2.596 1.993-3.078 3.44a9.646 9.646 0 0 0-.376 1.585 9.622 9.622 0 0 0 1.585-.376c1.447-.482 2.87-1.383 3.44-3.078a1 1 0 0 1 1.896.638c-.855 2.542-2.97 3.76-4.704 4.338a11.794 11.794 0 0 1-3.231.58l-.06.001H4.689l-.001-1-1-.001v-.027l.001-.06a9.266 9.266 0 0 1 .072-.935c.072-.599.216-1.419.508-2.295.577-1.734 1.795-3.849 4.338-4.704a1.001 1.001 0 0 1 1.267.629zm-5.185 7.394h-1a1 1 0 0 0 1 1v-1zM26.474 5.527c.167 1.161.231 4.018-2.694 6.942L16 20.249l-4.248-4.248 7.78-7.78c2.924-2.924 5.781-2.861 6.942-2.694zm.29-1.979c-1.596-.231-5.155-.233-8.646 3.258L9.63 15.294a1 1 0 0 0 0 1.414l5.662 5.663a.999.999 0 0 0 1.414 0l8.488-8.488c3.491-3.491 3.489-7.05 3.258-8.646a1.973 1.973 0 0 0-1.689-1.689z" />
            <path
                d="M23.075 13.588a1 1 0 0 1 1 1V22.677a1.997 1.997 0 0 1-.595 1.395l-4.036 4.048a2 2 0 0 1-3.374-1.025l-1.05-5.237a1 1 0 1 1 1.961-.393l1.05 5.239 4.044-4.057v-8.061a1 1 0 0 1 1-1zM9.324 7.925H17.413a1 1 0 0 1 0 2H9.352l-.008.008-4.047 4.036 5.238 1.05a1 1 0 0 1-.393 1.961l-5.236-1.05h-.001a2 2 0 0 1-1.025-3.374l.002-.002L7.929 8.52c.369-.374.87-.588 1.395-.595z" />
        </symbol>
        <symbol id="user" viewBox="0 0 32 32">
            <path
                d="M16 5a7 7 0 1 0 0 14 7 7 0 0 0 0-14zm-9 7c0-4.971 4.029-9 9-9s9 4.029 9 9-4.029 9-9 9-9-4.029-9-9z" />
            <path
                d="M16 20.998a13 13 0 0 0-11.258 6.501 1 1 0 0 1-1.732-1 15.006 15.006 0 0 1 20.492-5.491 15.005 15.005 0 0 1 5.49 5.491 1 1 0 0 1-1.732 1 12.997 12.997 0 0 0-11.258-6.501z" />
        </symbol>
        <symbol id="menu" viewBox="0 0 32 32">
            <path
                d="M4 16a1 1 0 0 1 1-1h22a1 1 0 0 1 0 2H5a1 1 0 0 1-1-1zM4 8a1 1 0 0 1 1-1h15a1 1 0 0 1 0 2H5a1 1 0 0 1-1-1zM4 24a1 1 0 0 1 1-1h15a1 1 0 0 1 0 2H5a1 1 0 0 1-1-1z" />
        </symbol>
    </defs>
</svg>